PathFileType	4	(X/Y/Z)	SUBJ26_0_static_RCNL2025.trc
DataRate	CameraRate	NumFrames	NumMarkers	Units	OrigDataRate	OrigDataStartFrame	OrigNumFrames
100	100	10	25	mm	100	87	101
Frame#	Time	R_Shoulder			L_Shoulder			C7			J_Notch			R_Elbow			L_Elbow			R_Wrist			L_Wrist			R_Asis			L_Asis			Sacral			Thoracic			Sternum			R_Thigh_Lateral			R_Knee_Lateral			R_Shank_Lateral			R_Ankle_Lateral			R_Heel			R_Toe			L_Thigh_Lateral			L_Knee_Lateral			L_Shank_Lateral			L_Ankle_Lateral			L_Heel			L_Toe		
		X1	Y1	Z1	X2	Y2	Z2	X3	Y3	Z3	X4	Y4	Z4	X5	Y5	Z5	X6	Y6	Z6	X7	Y7	Z7	X8	Y8	Z8	X9	Y9	Z9	X10	Y10	Z10	X11	Y11	Z11	X12	Y12	Z12	X13	Y13	Z13	X14	Y14	Z14	X15	Y15	Z15	X16	Y16	Z16	X17	Y17	Z17	X18	Y18	Z18	X19	Y19	Z19	X20	Y20	Z20	X21	Y21	Z21	X22	Y22	Z22	X23	Y23	Z23	X24	Y24	Z24	X25	Y25	Z25
87	0.86000000	-223.945801	1339.686157	-64.798843	-244.308640	1353.942749	-385.605988	-310.163452	1387.006836	-210.852966	-156.954453	1304.348145	-234.681870	-292.671814	1017.039978	25.449179	-304.093689	1032.611450	-494.103790	-212.116844	780.728516	66.092669	-214.890999	806.896484	-540.363831	-144.405228	936.695190	-101.968956	-170.147156	932.949158	-401.492584	-360.190948	924.201721	-224.805801	-350.191498	1037.770386	-226.410446	-84.151184	1050.301025	-234.698563	-254.008301	592.929810	-49.768513	-272.222290	446.579498	-121.635300	-297.487946	296.877289	-78.985481	-302.392059	55.385029	-151.003235	-352.993591	40.733757	-211.340912	-178.387039	44.979725	-172.266983	-247.116547	614.151489	-435.634369	-280.566315	450.322388	-355.875916	-292.292267	268.011719	-420.457306	-296.279266	61.123997	-329.047729	-357.678436	38.744823	-280.285950	-175.276489	43.557663	-289.890747
88	0.87000000	-224.046585	1339.700439	-64.844391	-244.321198	1353.910034	-385.695618	-310.137054	1387.016113	-210.990311	-157.056046	1304.338013	-234.798752	-292.864075	1017.374756	25.401478	-304.161987	1032.609497	-494.202484	-212.449158	780.922729	66.183222	-215.107269	806.864014	-540.414642	-144.495422	936.729675	-101.861359	-170.182388	932.947205	-401.407928	-360.284515	924.283508	-224.864822	-350.319092	1037.835205	-226.434128	-84.292999	1050.219971	-234.741760	-254.138077	593.003113	-49.703365	-272.328796	446.616669	-121.644753	-297.571533	296.851166	-78.961113	-302.378021	55.375481	-151.018707	-352.980896	40.737000	-211.424805	-178.392014	44.990746	-172.319626	-247.107880	614.131348	-435.656616	-280.650208	450.312775	-355.835510	-292.305969	267.934418	-420.451782	-296.288788	61.137188	-329.030945	-357.662018	38.756573	-280.314636	-175.272278	43.491947	-289.822113
89	0.88000000	-224.039536	1339.745728	-64.923805	-244.381500	1353.888550	-385.846405	-310.188354	1387.036133	-211.055756	-156.997879	1304.362915	-234.860748	-292.939087	1017.512573	25.358084	-304.246094	1032.624878	-494.249634	-212.322975	780.940460	66.147655	-215.233978	806.824249	-540.454620	-144.757721	936.827087	-101.803040	-169.933182	932.765564	-401.691284	-360.437561	924.317749	-224.876266	-350.327789	1037.808838	-226.482101	-84.314880	1050.188965	-234.759750	-254.280823	592.940735	-49.753429	-272.463867	446.578278	-121.621727	-297.593689	296.828033	-78.958893	-302.373596	55.411533	-150.905579	-352.981750	40.711544	-211.433441	-178.426331	44.954662	-172.308823	-247.111664	614.147644	-435.620361	-280.643799	450.253937	-355.817078	-292.350403	267.960663	-420.460846	-296.346680	61.093922	-329.047638	-357.579865	38.737854	-280.229828	-175.330505	43.566364	-289.909088
90	0.89000000	-223.960968	1339.768799	-65.134102	-244.404861	1353.889160	-385.860962	-310.170959	1387.072876	-211.114914	-157.074478	1304.416504	-234.966507	-292.973450	1017.615112	25.343855	-304.393158	1032.638794	-494.304779	-212.525818	781.182159	66.300417	-215.344322	806.863403	-540.552094	-145.030594	936.847168	-101.703232	-170.161423	932.939880	-401.413544	-360.513550	924.316711	-224.927277	-350.375336	1037.846680	-226.433838	-84.388695	1050.158447	-234.685516	-254.367523	592.973328	-49.703274	-272.463959	446.563599	-121.622978	-297.602081	296.833282	-78.948578	-302.381622	55.335876	-150.916214	-352.981689	40.709759	-211.431000	-178.422180	44.948402	-172.304810	-247.123901	614.142212	-435.595154	-280.668945	450.294464	-355.823456	-292.368469	267.992035	-420.500183	-296.120880	61.320702	-329.153351	-357.510620	38.644196	-280.245605	-175.350754	43.510445	-289.924408
91	0.90000000	-224.021561	1339.877808	-65.090736	-244.411697	1353.885132	-385.901550	-310.255707	1387.116211	-211.157196	-157.073120	1304.419556	-235.002975	-292.907318	1017.710449	25.425329	-304.392914	1032.614624	-494.309845	-212.522789	781.276825	66.364075	-215.405914	806.875061	-540.640289	-145.266235	936.825867	-101.648308	-170.145203	932.721191	-401.546051	-360.515503	924.316956	-224.958801	-350.489166	1037.911377	-226.486038	-84.452324	1050.066040	-234.627899	-254.571381	592.932190	-49.640091	-272.491699	446.591187	-121.570984	-297.671234	296.835754	-79.013672	-302.382690	55.303169	-150.932190	-352.962219	40.697655	-211.458725	-178.461548	44.960587	-172.276779	-247.212219	614.127808	-435.534546	-280.673309	450.261475	-355.802277	-292.209686	267.962830	-420.603363	-296.345612	61.152603	-329.010925	-357.479675	38.626656	-280.280731	-175.296539	43.465694	-289.821075
92	0.91000000	-224.009705	1339.999023	-65.130508	-244.490067	1353.878662	-385.931061	-310.248169	1387.172241	-211.263840	-157.183929	1304.415405	-235.039230	-292.901398	1017.788757	25.415855	-304.499969	1032.615356	-494.294281	-212.411118	781.309784	66.335066	-215.442856	806.861023	-540.704773	-145.484482	936.790466	-101.591301	-169.997482	932.763977	-401.586853	-360.598480	924.381287	-225.020294	-350.589996	1037.974121	-226.516037	-84.567131	1050.067505	-234.700134	-254.645386	592.958435	-49.598255	-272.508667	446.553375	-121.597633	-297.737335	296.742767	-78.957291	-302.462555	55.311356	-150.973618	-352.978546	40.682560	-211.433273	-178.418533	44.984062	-172.328659	-247.226913	614.150330	-435.529572	-280.682526	450.270691	-355.817932	-292.354095	267.932556	-420.420349	-296.163452	61.330570	-329.143982	-357.497253	38.581871	-280.258881	-175.295517	43.470467	-289.794464
93	0.92000000	-223.993088	1340.009521	-65.143417	-244.485764	1353.869263	-385.972992	-310.286041	1387.173096	-211.378784	-157.213730	1304.368530	-235.112473	-292.864532	1017.835876	25.410633	-304.583282	1032.621826	-494.400055	-212.532127	781.449646	66.514622	-215.566833	806.886414	-540.745300	-145.659607	936.811523	-101.475693	-170.002747	932.794556	-401.579041	-360.744354	924.392456	-225.028763	-350.695374	1037.983032	-226.455124	-84.598190	1050.002930	-234.666275	-254.678467	592.951294	-49.547302	-272.563995	446.522522	-121.642090	-297.774445	296.737183	-78.953987	-302.458160	55.257492	-151.004135	-352.983246	40.660854	-211.429352	-178.446701	44.986855	-172.305527	-247.315247	614.131287	-435.493896	-280.701447	450.201813	-355.747589	-292.423828	267.884888	-420.356201	-296.293274	61.103996	-329.016083	-357.513947	38.612087	-280.225006	-175.363205	43.464481	-289.768036
94	0.93000000	-223.937302	1340.097778	-65.253906	-244.445251	1353.874634	-386.106384	-310.285980	1387.142822	-211.407578	-157.137558	1304.412842	-235.188416	-292.893005	1017.921082	25.421585	-304.683960	1032.642334	-494.370178	-212.460892	781.494110	66.618229	-215.727486	806.797943	-540.793976	-145.752090	936.713196	-101.327278	-170.017303	932.773438	-401.547882	-360.800507	924.423889	-225.103104	-350.765503	1037.995850	-226.506042	-84.625839	1049.916748	-234.706772	-254.883438	592.930481	-49.547821	-272.576263	446.510834	-121.632599	-297.811951	296.719513	-78.963272	-302.458740	55.329330	-150.986862	-352.962158	40.646408	-211.458420	-178.402740	44.975277	-172.320557	-247.386765	614.083557	-435.443573	-280.735535	450.184509	-355.729767	-292.376129	267.936768	-420.318512	-296.325897	61.051392	-329.002441	-357.658661	38.694698	-280.275513	-175.392761	43.429497	-289.753357
95	0.94000000	-223.858200	1340.156616	-65.317848	-244.522568	1353.843140	-386.131775	-310.318359	1387.217041	-211.471802	-157.191406	1304.512451	-235.273560	-292.842163	1018.002991	25.511694	-304.735962	1032.570679	-494.396271	-212.380005	781.609375	66.669134	-215.735748	806.755188	-540.805115	-145.857605	936.834534	-101.261055	-170.160370	932.689636	-401.387024	-360.879242	924.428528	-225.114456	-350.841309	1038.006104	-226.472504	-84.656357	1049.848633	-234.663620	-254.935059	592.946594	-49.510136	-272.735474	446.514130	-121.546700	-297.789978	296.723297	-78.952072	-302.445435	55.249294	-150.967865	-352.978333	40.631569	-211.433197	-178.375305	44.960609	-172.296631	-247.349258	614.008301	-435.483124	-280.669952	450.198730	-355.641815	-292.381195	267.959778	-420.270599	-296.380341	61.096378	-329.002777	-357.494690	38.568890	-280.287842	-175.309586	43.433186	-289.711670
96	0.95000000	-223.908600	1340.162231	-65.421120	-244.504745	1353.830811	-386.188873	-310.329041	1387.226562	-211.507965	-157.203751	1304.515869	-235.276749	-292.726959	1018.054382	25.564325	-304.725342	1032.563721	-494.452026	-212.303352	781.724518	66.782593	-215.906143	806.717804	-540.810089	-145.950562	936.882263	-101.182121	-170.030090	932.721252	-401.417389	-360.878723	924.421570	-225.120132	-350.859558	1038.116333	-226.454910	-84.673462	1049.838013	-234.604080	-254.889038	592.865479	-49.568203	-272.733490	446.519836	-121.561974	-297.742218	296.693329	-78.958427	-302.536194	55.319916	-150.935181	-352.980621	40.685192	-211.429642	-178.400421	44.970440	-172.257401	-247.386414	614.065247	-435.375458	-280.758453	450.277069	-355.662506	-292.366974	267.959473	-420.299072	-296.145050	61.334595	-329.141052	-357.647156	38.726532	-280.254883	-175.256516	43.564781	-289.824677
